Simulation
nRows=48
nColumns=15
endheader
time  TH_x TH_y TH_z SC_y  SC_z  SC_x  AC_y  AC_z  AC_x  GH_y  GH_z  GH_yy  EL_x  PS_y
0.0  0.000000  0.000000  0.000000  -21.481837363305974  5.049547332879065  0.3347068766571287  51.77729097442693  5.994931934804871  0.24555092325443614  171.26497365336186  1.4229748632189263  -128.32334611874577  21.00183549559457  120.000000
0.05362  0.000000  0.000000  0.000000  -20.132238720198576  4.7680980416212355  -1.201528856271906  50.95000140433482  6.101146317874351  0.39902878412059245  -1.6368431358938973  2.0648610740897517  43.09218248069327  20.309168281747745  120.000000
0.10724  0.000000  0.000000  0.000000  -18.915752062475004  4.483415133047942  -2.6976106747495603  50.098636393326274  6.108810466416755  0.5481678714055023  -3.4639714367798766  5.472883695485519  43.30652573571818  19.606391251914907  120.000000
0.16086  0.000000  0.000000  0.000000  -17.904533329864027  4.233097890485091  -4.152145683744478  49.24173680357173  6.0607927952929055  0.7103117835241096  -3.7437046487278485  8.792335131124341  41.70079044114505  18.86880463065895  120.000000
0.21448  0.000000  0.000000  0.000000  -17.143089465488675  4.025300004187508  -5.551985842739022  48.42254573574325  6.016140796870058  0.9100904418282887  -3.8306193805273  12.018957825454846  39.51751566533522  18.092402546793007  120.000000
0.2681  0.000000  0.000000  0.000000  -16.65016870117208  3.864476732999291  -6.874383190096705  47.69069602140206  6.048999365459352  1.164774412015057  -4.044434634016763  15.177229358933538  37.03254069034903  17.28301031988734  120.000000
0.32172  0.000000  0.000000  0.000000  -16.426535307478016  3.762255383527922  -8.09217303011181  47.07832166453192  6.225799269092044  1.489199392494037  -4.5447355820850515  18.30517220650961  34.429047164758856  16.45363727059961  120.000000
0.37534  0.000000  0.000000  0.000000  -16.468553493929015  3.734458165552793  -9.179104223545401  46.59478698361718  6.586651041753077  1.8863572873925054  -5.393358293993887  21.437154470765808  31.85035506944043  15.619550447946441  120.000000
0.42896  0.000000  0.000000  0.000000  -16.780022143672337  3.805548620652955  -10.113375858748045  46.22516278017073  7.139249863229155  2.3462576964739217  -6.572407465602922  24.588265202778068  29.404804132993544  14.79976402788193  120.000000
0.48258  0.000000  0.000000  0.000000  -17.368400537692004  3.9974207552490726  -10.873153586042221  45.94040502155555  7.866890515255579  2.8515712661248087  -8.00813208099999  27.75202452840833  27.174139652852688  14.011758450865175  120.000000
0.5362  0.000000  0.000000  0.000000  -18.237534674691307  4.325301557793212  -11.43188072166969  45.71731905078572  8.737290608559185  3.3837895670532774  -9.579554866073623  30.904936739051433  25.201608078099312  13.270843781908912  120.000000
0.58982  0.000000  0.000000  0.000000  -19.38396628956813  4.790325766617648  -11.756575114901432  45.54830053118297  9.706876083959349  3.927253797756444  -11.15273576876961  34.01458466107643  23.50359917235416  12.587028491380428  120.000000
0.64344  0.000000  0.000000  0.000000  -20.794964621748846  5.3808563354149594  -11.811690153755132  45.44529168579206  10.723365651335316  4.4680666060059995  -12.598829881313591  37.04819174978047  22.065636807509332  11.9659859822741  120.000000
0.69706  0.000000  0.000000  0.000000  -22.446038482036453  6.072320196091911  -11.56401141553358  45.43591728911294  11.73198240412052  4.9922009512493934  -13.81514435420554  39.97827518098121  20.846384819600555  11.405761444321856  120.000000
0.75068  0.000000  0.000000  0.000000  -24.299318597777958  6.831532740837435  -10.996759226830322  45.552508982072176  12.687112255404752  5.489789691324075  -14.732360473261991  42.784467873930474  19.77677932536469  10.894681577894206  120.000000
0.8043  0.000000  0.000000  0.000000  -26.301836712011752  7.618863144226829  -10.109940033969787  45.82087191041812  13.555098832492577  5.950232968813444  -15.319670155155766  45.45374062107271  18.770150775086453  10.410197575081868  120.000000
0.85792  0.000000  0.000000  0.000000  -28.384982699169683  8.394413312553926  -8.92069583026139  46.24881606643943  14.311980381965606  6.3592720204853945  -15.581146410868138  47.97678412162433  17.73727054813562  9.925007853620953  120.000000
0.91154  0.000000  0.000000  0.000000  -30.46846420064952  9.12527487823397  -7.466192134702156  46.81715703171723  14.94359057393751  6.704901135495792  -15.54797123951114  50.345063093073534  16.606307364058193  9.418051121304465  120.000000
0.96516  0.000000  0.000000  0.000000  -32.46852923256761  9.792751745804292  -5.807264983070716  47.47697121641698  15.444897674735135  6.98085751349641  -15.274596345273743  52.55091621098176  15.345563951038047  8.886066092595248  120.000000
1.01878  0.000000  0.000000  0.000000  -34.308871773584386  10.391328344474688  -4.026474955061432  48.155196127144634  15.81894711552137  7.189217947425137  -14.837578824282065  54.590023135709295  13.975802059259443  8.346382213969282  120.000000
1.0724  0.000000  0.000000  0.000000  -35.93291814986886  10.927386054015253  -2.2231755482865716  48.772878623502024  16.07689137109396  7.341195857537638  -14.322000979939112  56.460083303453146  12.55784684865134  7.831186946935936  120.000000
1.12602  0.000000  0.000000  0.000000  -37.311301354097225  11.41212611737584  -0.49063564181932706  49.270104941265224  16.229073366288766  7.448517712897881  -13.803478038380936  58.160732977834215  11.172354259709062  7.377159982113711  120.000000
1.17964  0.000000  0.000000  0.000000  -38.443141097211  11.856557250060268  1.1020515896249468  49.62206599002994  16.278121908649755  7.515329715042239  -13.337267163617872  59.689389405247425  9.90105130804707  7.0160591529586736  120.000000
1.23326  0.000000  0.000000  0.000000  -39.35035188910972  12.265616173461208  2.5089245175302923  49.83893940962057  16.22397656023853  7.541355068310991  -12.955800690254563  61.03994665582299  8.814971245695972  6.770275031008382  120.000000
1.28688  0.000000  0.000000  0.000000  -40.06591223809416  12.638655918226183  3.707110147068001  49.95433560729974  16.068520311367475  7.523762552899999  -12.673473379131543  62.200849000584036  7.966792033248598  6.65142414451637  120.000000
1.3405  0.000000  0.000000  0.000000  -40.624027499942095  12.970033681970254  4.692604351526455  50.00907444734489  15.821619436893677  7.459979940533989  -12.493034154609735  63.160302343289274  7.386217927029266  6.658610376301875  120.000000
1.39412  0.000000  0.000000  0.000000  -41.053538588122734  13.251687044045026  5.4779838430402235  50.03652733510478  15.507676266608478  7.353031050934608  -12.411691982732819  63.912536961060674  7.074194658054467  6.771635225302909  120.000000
1.44774  0.000000  0.000000  0.000000  -41.375782659071255  13.475760902255987  6.091887135255249  50.056748089338534  15.16281441778798  7.210815513551908  -12.422567649581234  64.46590450048181  7.0009533945997  6.947339211798475  120.000000
1.50136  0.000000  0.000000  0.000000  -41.60456198520583  13.63528459557333  6.572521690944348  50.07711399309626  14.827326236138695  7.043248788476584  -12.51511547117184  64.84327545185988  7.11242732543417  7.126612754239911  120.000000
1.55498  0.000000  0.000000  0.000000  -41.74646122131472  13.72533310734264  6.956387302309882  50.097546605704416  14.536529258522737  6.857541263795014  -12.674983741249454  65.0747787064598  7.344484824256568  7.250578015266808  120.000000
1.6086  0.000000  0.000000  0.000000  -41.80178891256114  13.743130845922748  7.269077651907753  50.1154289409862  14.310525478666191  6.656041354204035  -12.882481976799651  65.18838781481249  7.637601253849519  7.281360406411213  120.000000
1.66222  0.000000  0.000000  0.000000  -41.76268906936812  13.689295004117326  7.519310944038552  50.129043441039464  14.149150888171077  6.435629840163518  -13.113264867758131  65.19717194024828  7.946941865160996  7.214958911138745  120.000000
1.71584  0.000000  0.000000  0.000000  -41.612107183183895  13.567417491415272  7.700249386790555  50.139212385847955  14.032066138536925  6.189950748270195  -13.340010276631084  65.08806930133717  8.242044230746567  7.080307234037086  120.000000
1.76946  0.000000  0.000000  0.000000  -41.324934226969305  13.384160135684722  7.792850143651743  50.15089495577831  13.9247401292868  5.91272239752085  -13.535805967262036  64.81342124966596  8.498986085273081  6.926681557496707  120.000000
1.82308  0.000000  0.000000  0.000000  -40.87621467155294  13.148591726304922  7.772479424687468  50.17300735467918  13.786043566314005  5.603163675396724  -13.676354335834805  64.28950985777388  8.691145453236214  6.813220782391216  120.000000
1.8767  0.000000  0.000000  0.000000  -40.25286120134982  12.872326050474006  7.61448182964488  50.21784767955632  13.574717298544224  5.267734505245795  -13.741011017539561  63.403431032640434  8.786698373360181  6.802407529042462  120.000000
1.93032  0.000000  0.000000  0.000000  -39.46114213775459  12.568366168124832  7.300881391072267  50.29497076559674  13.254726265953364  4.920667858177558  -13.711099319633327  62.02752750083879  8.756929555962726  6.95467055743519  120.000000
1.98394  0.000000  0.000000  0.000000  -38.52512864199804  12.250999721048405  6.821378931395871  50.4010066964115  12.801918623559706  4.580546135493067  -13.565604963778208  60.04104811864407  8.595983283764161  7.316416177749393  120.000000
2.03756  0.000000  0.000000  0.000000  -37.47392108267518  11.936473027753033  6.173439822696196  50.50751386091496  12.212276929045032  4.268002423284871  -13.275446624321766  57.35711625723306  8.3445647221379  7.8979712628976175  120.000000
2.09118  0.000000  0.000000  0.000000  -36.32642908844748  11.642339272567865  5.361753280808787  50.55941927121064  11.508924164201156  4.00080475183139  -12.799256797070555  53.94714291554448  8.106139914666983  8.649853890641918  120.000000
2.1448  0.000000  0.000000  0.000000  -35.086003468512224  11.38524314499508  4.402063249864395  50.4872182086627  10.740772065087684  3.786364747435369  -12.089348345311105  49.8523800893176  8.0426573598424  9.459428335943496  120.000000
2.19842  0.000000  0.000000  0.000000  -33.74865718077278  11.17782017886574  3.3305237189496886  50.23231806238753  9.970880685976645  3.614403041703034  -11.101893120441062  45.17779610715796  8.343940056707115  10.182492945329505  120.000000
2.25204  0.000000  0.000000  0.000000  -32.31851660544142  11.022179201431  2.2049557465638974  49.772917129086714  9.259474429396807  3.461184212718314  -9.804706314550605  40.073322641888645  9.180601812646826  10.703604055681714  120.000000
2.30566  0.000000  0.000000  0.000000  -30.824376614760762  10.906687575571862  1.091520439595295  49.136079032487714  8.649873874928804  3.3007412800215405  -8.19061300457091  34.714444705548736  10.666221386348669  10.998998785018916  120.000000
2.35928  0.000000  0.000000  0.000000  -29.32080387697677  10.807207319270752  0.04475862623810415  48.39347172201096  8.16885900658452  3.119446078736612  -6.290616999417745  29.292358173317396  12.834715393493624  11.160995065452745  120.000000
2.4129  0.000000  0.000000  0.000000  -27.873597682871853  10.692201796005724  -0.888297792560485  47.64667120476314  7.83076294326928  2.9236613314616897  -4.166415659829054  24.00869343042143  15.624873007682387  11.361685563023862  120.000000
2.46652  0.000000  0.000000  0.000000  -26.546122107014803  10.533482175790168  -1.6541678509179991  47.005462966042046  7.641631782084129  2.732774706613156  -1.8761101416693087  19.0583230829681  18.85982065326235  11.77522071187061  120.000000
2.52014  0.000000  0.000000  0.000000  -25.399963219489187  10.314864703300154  -2.202701202494387  46.559250713739104  7.602644300312621  2.566843666411119  0.5982034614771262  14.597809620278094  22.199394904018142  12.496744407336186  120.000000
